M48
METRIC,LZ,000.000
;FILE_FORMAT=3:3
;TYPE=PLATED
;Layer: PTH_Through
;EasyEDA v6.5.51, 2026-08-23 16:47:14
;06d69657ce544aa9bacfbf9a9c8904c3,7dde94cb4442416984dbdfea25d56d0c,10
;Gerber Generator version 0.2
;Holesize 1 = 0.701 mm
T01C0.701
;Holesize 2 = 0.751 mm
T02C0.751
;Holesize 3 = 0.800 mm
T03C0.800
;Holesize 4 = 0.889 mm
T04C0.889
;Holesize 5 = 0.900 mm
T05C0.900
;Holesize 6 = 0.901 mm
T06C0.901
;Holesize 7 = 0.966 mm
T07C0.966
;Holesize 8 = 1.000 mm
T08C1.000
;Holesize 9 = 1.301 mm
T09C1.301
%
G05
G90
T01
X068239Y057912
X068239Y062992
X068199Y047879
X068199Y052959
T02
X057522Y050481
X058792Y050481
X060062Y050481
T03
X010795Y061722
X010795Y059182
T04
X074676Y064262
X074676Y061722
X074676Y059182
X074676Y056642
T05
X043307Y055372
X043307Y065532
X030262Y055372
X030262Y065532
X017217Y055372
X017217Y065532
T06
X048006Y050800
X045466Y035560
X040385Y035560
X035305Y035560
X030225Y035560
X025145Y035560
X020065Y035560
X014985Y035560
X012446Y050800
X017527Y050800
X022607Y050800
X027687Y050800
X032767Y050800
X037847Y050800
X042926Y050800
X045466Y050800
X040386Y050800
X035306Y050800
X030226Y050800
X025146Y050800
X020066Y050800
X014986Y050800
X012446Y035560
X017526Y035560
X022606Y035560
X027686Y035560
X032766Y035560
X037846Y035560
X042926Y035560
X048006Y035560
T07
X036785Y061537
X036785Y058997
X023740Y061537
X023740Y058997
T08
X054726Y062752G85X055226Y062752
X057266Y062752G85X057766Y062752
X052186Y062752G85X052686Y062752
X063363Y040180
X055763Y040180
T09
X072946Y037076
X072946Y042084
M30
