G04 Layer: TopSolderMaskLayer*
G04 EasyEDA v6.5.51, 2026-08-23 16:47:14*
G04 06d69657ce544aa9bacfbf9a9c8904c3,7dde94cb4442416984dbdfea25d56d0c,10*
G04 Gerber Generator version 0.2*
G04 Scale: 100 percent, Rotated: No, Reflected: No *
G04 Dimensions in millimeters *
G04 leading zeros omitted , absolute positions ,4 integer and 5 decimal *
%FSLAX45Y45*%
%MOMM*%

%AMMACRO1*4,1,8,-1.0211,-0.8009,-1.0508,-0.7709,-1.0508,0.7711,-1.0211,0.8009,1.0208,0.8009,1.0508,0.7711,1.0508,-0.7709,1.0208,-0.8009,-1.0211,-0.8009,0*%
%AMMACRO2*4,1,8,-0.5461,-0.8509,-0.5758,-0.8209,-0.5758,0.8212,-0.5461,0.8509,0.5458,0.8509,0.5758,0.8212,0.5758,-0.8209,0.5458,-0.8509,-0.5461,-0.8509,0*%
%AMMACRO3*4,1,8,-0.8085,-0.8382,-0.8382,-0.8082,-0.8382,0.8085,-0.8085,0.8382,0.8082,0.8382,0.8382,0.8085,0.8382,-0.8082,0.8082,-0.8382,-0.8085,-0.8382,0*%
%AMMACRO4*4,1,8,-0.8212,-0.8509,-0.8509,-0.8209,-0.8509,0.8212,-0.8212,0.8509,0.8209,0.8509,0.8509,0.8212,0.8509,-0.8209,0.8209,-0.8509,-0.8212,-0.8509,0*%
%ADD10O,2.101596X1.601597*%
%ADD11MACRO1*%
%ADD12C,1.9016*%
%ADD13C,1.3000*%
%ADD14MACRO2*%
%ADD15O,1.151611X1.701597*%
%ADD16O,0.0129X1.701597*%
%ADD17MACRO3*%
%ADD18C,1.6764*%
%ADD19C,1.7526*%
%ADD20C,1.5016*%
%ADD21MACRO4*%
%ADD22C,1.7016*%
%ADD23C,2.1016*%
%ADD24C,1.9812*%

%LPD*%
D10*
G01*
X5497575Y6275196D03*
G01*
X5751575Y6275196D03*
D11*
G01*
X5243576Y6275197D03*
D12*
G01*
X6336309Y4018000D03*
G01*
X5576315Y4018000D03*
D13*
G01*
X6823862Y5791200D03*
G01*
X6823862Y6299200D03*
G01*
X6819900Y4787900D03*
G01*
X6819900Y5295900D03*
D14*
G01*
X5752261Y5048122D03*
D15*
G01*
X5879261Y5048122D03*
G01*
X6006261Y5048122D03*
D17*
G01*
X7467600Y6426200D03*
D18*
G01*
X7467600Y6172200D03*
G01*
X7467600Y5918200D03*
G01*
X7467600Y5664200D03*
D19*
G01*
X3678453Y6153657D03*
G01*
X3678453Y5899657D03*
G01*
X2373985Y6153657D03*
G01*
X2373985Y5899657D03*
D20*
G01*
X1079500Y6172200D03*
G01*
X1079500Y5918200D03*
D21*
G01*
X4800600Y5080000D03*
D22*
G01*
X4546600Y3556000D03*
G01*
X4038600Y3556000D03*
G01*
X3530600Y3556000D03*
G01*
X3022600Y3556000D03*
G01*
X2514600Y3556000D03*
G01*
X2006600Y3556000D03*
G01*
X1498600Y3556000D03*
G01*
X1244600Y5080000D03*
G01*
X1752600Y5080000D03*
G01*
X2260600Y5080000D03*
G01*
X2768600Y5080000D03*
G01*
X3276600Y5080000D03*
G01*
X3784600Y5080000D03*
G01*
X4292600Y5080000D03*
G01*
X4546600Y5080000D03*
G01*
X4038600Y5080000D03*
G01*
X3530600Y5080000D03*
G01*
X3022600Y5080000D03*
G01*
X2514600Y5080000D03*
G01*
X2006600Y5080000D03*
G01*
X1498600Y5080000D03*
G01*
X1244600Y3556000D03*
G01*
X1752600Y3556000D03*
G01*
X2260600Y3556000D03*
G01*
X2768600Y3556000D03*
G01*
X3276600Y3556000D03*
G01*
X3784600Y3556000D03*
G01*
X4292600Y3556000D03*
D21*
G01*
X4800600Y3556000D03*
D23*
G01*
X7294600Y3707561D03*
G01*
X7294600Y4208449D03*
D24*
G01*
X4330700Y5537200D03*
G01*
X4330700Y6553200D03*
G01*
X3026232Y5537200D03*
G01*
X3026232Y6553200D03*
G01*
X1721738Y5537200D03*
G01*
X1721738Y6553200D03*
M02*
